<svg width="90" height="104" viewBox="0 0 90 104" fill="none" xmlns="http://www.w3.org/2000/svg">
<g id="logo-brand">
<g id="logo-white">
<g id="logo icon">
<path id="Vector" d="M70.0182 0.399671C66.7965 0.906396 63.7179 1.98408 60.9043 3.55421C58.1408 5.10294 55.635 7.1227 53.5302 9.55641C53.2009 9.94181 52.8787 10.3343 52.5637 10.734C52.4062 10.9338 52.263 11.148 52.1198 11.3478C51.9695 11.5476 51.8191 11.7475 51.6759 11.9544C51.4611 12.2685 51.2607 12.5896 51.0602 12.9037C50.9958 13.0107 50.9242 13.1106 50.8598 13.2105C50.6235 13.5959 50.4016 13.9956 50.1868 14.3953C50.1653 14.4381 50.1438 14.4738 50.1224 14.5166C49.1773 16.2866 48.4256 18.1636 47.8886 20.0977C48.7263 19.9835 49.5854 19.8265 50.4517 19.6124L50.8096 19.5196C51.003 19.4697 51.2034 19.4126 51.3896 19.3555C51.5972 19.2912 51.8048 19.227 52.0124 19.1556C52.1341 18.8273 52.263 18.5062 52.399 18.185C52.4062 18.1779 52.4062 18.1636 52.4133 18.1565C52.5422 17.8496 52.6782 17.5498 52.8143 17.2572C52.8286 17.2215 52.8501 17.1858 52.8644 17.143C52.9932 16.8718 53.1293 16.6006 53.2725 16.3294C53.3083 16.2652 53.3441 16.2009 53.3727 16.1367C53.5016 15.894 53.6376 15.6514 53.7736 15.4159C53.8309 15.3231 53.881 15.2303 53.9383 15.1447C54.0671 14.9377 54.196 14.7236 54.3249 14.5166C54.4036 14.3881 54.4896 14.2668 54.5755 14.1455C54.69 13.9742 54.8046 13.8029 54.9263 13.6316C55.048 13.4603 55.1768 13.289 55.3057 13.1178C55.3916 12.9964 55.4847 12.8751 55.5778 12.7609C55.8069 12.4683 56.0431 12.1828 56.2794 11.9045C57.432 10.5699 58.7136 9.38512 60.1025 8.35026C60.1096 8.34312 60.1168 8.33599 60.1239 8.32885C62.4579 6.6017 65.0854 5.31705 67.9205 4.53198C66.6604 9.04968 64.1117 13.0535 60.5249 16.1367C60.4891 16.1652 60.4533 16.1938 60.4175 16.2223C59.6657 16.8647 58.8711 17.4642 58.0263 18.0066C58.0119 18.0137 57.9976 18.0209 57.9833 18.028C57.5537 18.3063 57.1242 18.5704 56.6731 18.8202C56.215 19.0771 55.7424 19.3198 55.2628 19.5482L55.0122 19.6695C54.7974 19.7694 54.5826 19.8693 54.3607 19.9621C54.2032 20.0335 54.0385 20.0977 53.881 20.162C53.8452 20.1762 53.8094 20.1905 53.7808 20.2048C53.7378 20.2262 53.6877 20.2405 53.6447 20.2547C53.4729 20.3261 53.3011 20.3903 53.1221 20.4546C52.9217 20.5259 52.714 20.5973 52.5136 20.6687C52.3203 20.7329 52.127 20.79 51.9337 20.8542C51.905 20.8614 51.8764 20.8685 51.8549 20.8828C51.8191 20.8971 51.7762 20.9042 51.7404 20.9113C51.5685 20.9613 51.3967 21.0113 51.2177 21.0612L50.8454 21.154C49.7715 21.4252 48.7048 21.625 47.6739 21.7392C47.6094 21.7464 47.545 21.7464 47.4877 21.7535C47.3946 21.7606 47.3016 21.7678 47.2085 21.7749L46.7861 21.8106C46.6358 21.8249 46.4926 21.8391 46.3494 21.8463C45.9556 21.8677 45.5547 21.8748 45.1538 21.882L45.0034 21.8891C44.7385 21.8891 44.4736 21.8748 44.2087 21.8677C44.4378 23.0667 44.6025 24.28 44.6813 25.5075C44.803 25.5075 44.9318 25.5147 45.0535 25.5147C45.4616 25.5147 45.8769 25.5075 46.2849 25.4861L46.6644 25.4647C46.8935 25.4505 47.1226 25.429 47.3517 25.4076C47.545 25.3934 47.7455 25.3791 47.9388 25.3577C48.3182 25.3148 48.6976 25.2649 49.0699 25.2078C49.1057 25.2007 49.1487 25.2007 49.1845 25.1935C50.015 25.0651 50.8383 24.9009 51.6473 24.7011L51.7762 24.6725C52.621 24.4584 53.4586 24.2015 54.3106 23.9017C54.5755 23.8089 54.8404 23.709 55.0981 23.602V23.6091L55.4561 23.4592L55.5491 23.4236C58.0119 22.403 60.2958 21.0327 62.3505 19.3626C62.5438 19.2056 62.7299 19.0557 62.9161 18.8916C67.8345 14.6593 71.0992 8.8213 72.1015 2.45512L72.2733 1.34889L72.4881 0L70.0182 0.399671Z" fill="#0C697E"/>
<path id="Vector_2" d="M19.9888 54.4194C23.2105 53.9127 26.289 52.8421 29.1026 51.2648C31.8661 49.7161 34.3719 47.6964 36.4767 45.2627C36.8061 44.8773 37.1282 44.4847 37.4432 44.0851C37.6007 43.8852 37.7439 43.6782 37.8871 43.4713C38.0375 43.2714 38.1878 43.0716 38.331 42.8646C38.5458 42.5506 38.7462 42.2294 38.9467 41.9083C39.0111 41.8012 39.0827 41.7013 39.1472 41.6014C39.3834 41.216 39.6054 40.8163 39.8201 40.4166C39.8416 40.3738 39.8631 40.3381 39.8846 40.2953C40.8296 38.5253 41.5813 36.6483 42.1183 34.7142C41.2806 34.8284 40.4215 34.9854 39.5481 35.1995L39.1901 35.2923C38.9968 35.3423 38.7963 35.3994 38.6102 35.4565C38.4026 35.5207 38.195 35.5849 37.9873 35.6563C37.8656 35.9846 37.7368 36.3057 37.6007 36.6269C37.5936 36.6341 37.5936 36.6483 37.5864 36.6555C37.4576 36.9624 37.3215 37.2621 37.1855 37.5547C37.1712 37.5904 37.1497 37.6261 37.1354 37.6689C37.0065 37.9401 36.8705 38.2113 36.7273 38.4825C36.6915 38.5468 36.6557 38.611 36.6271 38.6752C36.4982 38.9179 36.3622 39.1605 36.2261 39.3961C36.176 39.4888 36.1188 39.5816 36.0615 39.6673C35.9326 39.8742 35.8037 40.0883 35.6749 40.2953C35.5961 40.4238 35.5102 40.5451 35.4243 40.6664C35.3098 40.8377 35.1952 41.009 35.0735 41.1803C34.9518 41.3516 34.8229 41.5229 34.694 41.6942C34.6081 41.8155 34.5151 41.9368 34.422 42.051C34.1929 42.3436 33.9566 42.6291 33.7204 42.9074C32.5677 44.2421 31.2862 45.4268 29.8973 46.4617C29.8901 46.4688 29.883 46.4759 29.8758 46.4831C27.5419 48.2102 24.9144 49.4949 22.0793 50.2799C23.3393 45.7622 25.8881 41.7584 29.4749 38.6752C29.5107 38.6467 29.5465 38.6181 29.5823 38.5896C30.334 37.9473 31.1287 37.3477 31.9735 36.8053C31.9878 36.7982 32.0021 36.7911 32.0165 36.7839C32.446 36.5056 32.8756 36.2415 33.3266 35.9917C33.7848 35.7348 34.2573 35.4921 34.737 35.2638L34.9876 35.1424C35.2024 35.0425 35.4243 34.9497 35.6391 34.8498C35.7966 34.7784 35.9613 34.7142 36.1188 34.65C36.1546 34.6357 36.1903 34.6214 36.219 34.6072C36.2619 34.5857 36.3121 34.5715 36.355 34.5572C36.5268 34.4858 36.6987 34.4216 36.8776 34.3574C37.0781 34.286 37.2857 34.2146 37.4862 34.1432C37.6795 34.079 37.8728 34.0148 38.0661 33.9577C38.0947 33.9505 38.1234 33.9434 38.1448 33.9291C38.1806 33.9149 38.2236 33.9077 38.2594 33.9006C38.4312 33.8506 38.603 33.8007 38.782 33.7507L39.1543 33.6579C40.2282 33.3867 41.295 33.1869 42.3259 33.0727C42.3903 33.0656 42.4548 33.0656 42.512 33.0584C42.6051 33.0513 42.6982 33.0442 42.7913 33.037L43.2137 33.0013C43.364 32.9871 43.5072 32.9728 43.6504 32.9656C44.0441 32.9442 44.4451 32.9371 44.846 32.93L44.9963 32.9228C45.2612 32.9228 45.5261 32.9371 45.791 32.9442C45.5619 31.7452 45.3973 30.5319 45.3185 29.3044C45.1968 29.3044 45.0679 29.2972 44.9462 29.2972C44.531 29.2972 44.1229 29.3044 43.7148 29.3258L43.3354 29.3472C43.1063 29.3615 42.8772 29.3829 42.6481 29.4043C42.4548 29.4186 42.2543 29.4328 42.061 29.4543C41.6816 29.4971 41.3021 29.547 40.9298 29.6041C40.894 29.6113 40.8511 29.6113 40.8153 29.6184C39.9848 29.7469 39.1615 29.911 38.3525 30.1109L38.2308 30.1394C37.386 30.3535 36.5483 30.6104 35.6964 30.9102C35.4315 31.003 35.1666 31.1029 34.9088 31.21V31.2028L34.5509 31.3527L34.4578 31.3884C31.995 32.409 29.7112 33.7793 27.6564 35.4493C27.4631 35.6063 27.277 35.7562 27.0908 35.9204C22.1724 40.1526 18.9077 45.9906 17.9054 52.3568L17.7336 53.463L17.5188 54.8119L19.9888 54.4194Z" fill="#0C697E"/>
<path id="Vector_3" d="M27.0908 18.9066C30.1335 21.5259 33.792 23.46 37.6723 24.5377C37.5578 23.7026 37.4003 22.8462 37.1855 21.9826L37.0924 21.6258C37.0423 21.4331 36.985 21.2332 36.9278 21.0477C36.8633 20.8407 36.7989 20.6337 36.7273 20.4268C34.0497 19.4419 31.6084 18.0145 29.4606 16.166C25.8737 13.0828 23.325 9.07897 22.0721 4.56127C26.604 5.81738 30.6204 8.35814 33.7132 11.9266C35.0663 13.4896 36.219 15.2525 37.1425 17.1652L37.2642 17.415C37.3645 17.6291 37.4575 17.8432 37.5506 18.0644C37.6365 18.2571 37.7153 18.4498 37.794 18.6497C37.8799 18.8709 37.9659 19.085 38.0446 19.3063C38.0804 19.4133 38.1162 19.5132 38.152 19.6203C38.1878 19.7202 38.2236 19.813 38.2522 19.9129C38.3238 20.1341 38.3954 20.3554 38.467 20.5766C38.5314 20.7836 38.5887 20.9906 38.646 21.2047L38.7391 21.5758C39.0111 22.6464 39.2116 23.7026 39.3261 24.7375C39.3405 24.8945 39.3548 25.0515 39.3691 25.2085L39.4049 25.6296C39.4192 25.7724 39.4335 25.9222 39.4407 26.065C39.4622 26.4575 39.4693 26.8572 39.4765 27.2568L39.4836 27.4067C39.4836 27.5637 39.4765 27.7136 39.4693 27.8706C39.8201 27.8064 40.1638 27.7422 40.5146 27.6851C40.5575 27.6779 40.5933 27.6708 40.6363 27.6708C41.073 27.6066 41.4739 27.5566 41.8462 27.5138C41.9966 27.4995 42.1398 27.4852 42.2901 27.4781L42.4762 27.4638L42.6695 27.4495C42.8199 27.4353 42.9631 27.421 43.1134 27.4139C43.1134 26.9856 43.0991 26.5646 43.0848 26.1363L43.0633 25.7581C42.9631 24.0666 42.7053 22.3966 42.2973 20.7907L42.2686 20.6623C42.0538 19.8201 41.7961 18.9851 41.4883 18.1358C41.3952 17.8717 41.2949 17.6077 41.1876 17.3507H41.1947L41.0086 16.9082C39.8846 14.2247 38.3596 11.7553 36.4624 9.56429C32.2312 4.65405 26.3749 1.39959 19.9888 0.400411L17.5188 0.0150146L17.9054 2.47013C18.9149 8.84345 22.1724 14.6744 27.0908 18.9066Z" fill="#0C697E"/>
<path id="Vector_4" d="M62.9089 35.9061C59.8662 33.2869 56.2078 31.3527 52.3274 30.275C52.4419 31.1101 52.5995 31.9665 52.8142 32.8372L52.9073 33.1941C52.9574 33.3939 53.0147 33.5866 53.072 33.7722C53.1364 33.9791 53.2008 34.1861 53.2724 34.3931C55.95 35.378 58.3914 36.8054 60.5392 38.6539C64.126 41.737 66.6747 45.7409 67.9276 50.2586C63.3957 49.0025 59.3793 46.4617 56.2865 42.8932C54.9334 41.3302 53.7807 39.5674 52.8572 37.6547L52.7355 37.4049C52.6353 37.1908 52.5422 36.9767 52.4491 36.7554C52.3632 36.5627 52.2844 36.3629 52.2057 36.1702C52.1198 35.9489 52.0339 35.7348 51.9551 35.5136C51.9193 35.4065 51.8835 35.3066 51.8477 35.1996C51.8119 35.0996 51.7761 35.0069 51.7475 34.9069C51.6759 34.6857 51.6043 34.4645 51.5327 34.2432C51.4683 34.0362 51.411 33.8293 51.3537 33.6152L51.2607 33.244C50.9886 32.1735 50.7881 31.1172 50.6736 30.0824C50.6593 29.9253 50.645 29.7683 50.6306 29.6113L50.5948 29.1902C50.5805 29.0475 50.5662 28.8976 50.559 28.7549C50.5376 28.3623 50.5304 27.9627 50.5232 27.563L50.5161 27.4131C50.5161 27.2561 50.5233 27.1062 50.5304 26.9492C50.1796 27.0135 49.836 27.0777 49.4851 27.1348C49.435 27.1348 49.3992 27.1419 49.3563 27.1419C48.9196 27.2061 48.5186 27.2561 48.1464 27.2989C48.0032 27.3132 47.8528 27.3275 47.7025 27.3346L47.5163 27.3489L47.323 27.3632C47.1727 27.3774 47.0295 27.3917 46.8792 27.3988C46.8792 27.8271 46.8935 28.2481 46.9078 28.6764L46.9293 29.0546C47.0295 30.7461 47.2872 32.4161 47.6953 34.022L47.724 34.1504C47.9387 34.9926 48.1965 35.8276 48.5043 36.6769C48.5974 36.941 48.6976 37.2051 48.805 37.462H48.7979L48.984 37.9045C50.1008 40.588 51.6329 43.0574 53.5302 45.2484C57.7757 50.1515 63.632 53.406 70.0181 54.4052L72.4809 54.7906L72.0943 52.3354C71.092 45.9764 67.8274 40.1383 62.9089 35.9061Z" fill="#0C697E"/>
</g>
<g id="Floward En">
<path id="Vector_5" d="M82.404 78.9278H79.798V69.3214H82.404C85.4109 69.3214 87.8594 71.1271 87.8594 74.1246C87.8523 77.1221 85.4109 78.9278 82.404 78.9278ZM82.4255 67.1946H77.6431V81.0546H82.4255C86.6066 81.0546 90.0001 78.2926 90.0001 74.1246C90.0001 69.9566 86.6066 67.1946 82.4255 67.1946Z" fill="#0C697E"/>
<path id="Vector_6" d="M0 81.0553H2.13348C2.13348 77.7794 4.80391 75.1174 8.09005 75.1174H8.67711V72.9905H8.09005C5.73463 72.9905 3.6083 74.0111 2.13348 75.6169V69.3221H9.60067V67.1953H0V81.0553Z" fill="#0C697E"/>
<path id="Vector_7" d="M12.801 67.1946H10.6675V81.0546H19.1728V78.9278H12.801V67.1946Z" fill="#0C697E"/>
<path id="Vector_8" d="M29.9905 74.3244C29.9905 76.8295 27.9501 78.8635 25.4372 78.8635C22.9243 78.8635 20.8839 76.8295 20.8839 74.3244V73.9247C20.8839 71.4197 22.9243 69.3856 25.4372 69.3856C27.9501 69.3856 29.9905 71.4197 29.9905 73.9247V74.3244ZM25.4372 67.1803C21.7072 67.1803 18.6716 70.2064 18.6716 73.9247V74.3244C18.6716 78.0428 21.7072 81.0689 25.4372 81.0689C29.1672 81.0689 32.2028 78.0428 32.2028 74.3244V73.9247C32.2028 70.2064 29.1672 67.1803 25.4372 67.1803Z" fill="#0C697E"/>
<path id="Vector_9" d="M43.8367 67.1803L42.0898 71.2341L43.2568 73.9319L46.1635 67.1803H43.8367Z" fill="#0C697E"/>
<path id="Vector_10" d="M49.7575 67.1803L45.0538 78.107L43.2568 73.9319L42.0898 71.2341L40.3429 67.1803L38.0233 67.1874L40.93 73.9319L39.133 78.107L34.4222 67.1803H32.1025L38.0734 81.0403H40.1926L42.0898 76.6225L43.9942 81.0403H46.1134L52.0842 67.1803H49.7575Z" fill="#0C697E"/>
<path id="Vector_11" d="M57.1531 74.8668C56.1078 74.8668 55.1055 75.0809 54.1819 75.4735L56.4801 70.135L58.5205 74.874H57.1531V74.8668ZM55.4205 67.1946L50.273 79.1419C50.1512 79.3917 50.0367 79.6486 49.9365 79.9127L49.4568 81.0332H51.7764L52.3921 79.6129C53.3873 77.9928 55.1771 76.9437 57.1531 76.9437H59.4226L61.1838 81.0403H63.5034L57.5397 67.1946H55.4205Z" fill="#0C697E"/>
<path id="Vector_12" d="M70.7988 75.0096H67.2477V69.3214H70.7988C72.3738 69.3214 73.6482 70.5989 73.6482 72.169C73.6553 73.732 72.3738 75.0096 70.7988 75.0096ZM75.7888 72.169C75.7888 69.4285 73.5551 67.1946 70.7988 67.1946H65.1143V68.258V77.1364V81.0546H67.2477V77.1364H70.3549C70.584 77.5004 72.0516 79.7771 72.8678 81.0403H75.4452C75.3593 80.9404 75.2733 80.8405 75.2018 80.7263L72.6674 76.7653C74.5001 76.0302 75.7888 74.2459 75.7888 72.169Z" fill="#0C697E"/>
</g>
<g id="Floward Ar">
<path id="Vector_13" d="M9.87989 98.7258C10.5242 94.8433 9.50761 91.9172 8.42655 89.5691L6.43625 90.4755C7.28821 92.3382 8.09722 94.5935 7.83948 97.4626H4.25266C3.5582 97.4626 2.72056 97.2984 1.74689 96.0994L0.0429688 97.4697C1.24574 98.9542 2.57737 99.6465 4.25266 99.6465H9.72955L9.87989 98.7258Z" fill="#0C697E"/>
<path id="Vector_14" d="M15.3496 90.5111C15.371 90.5468 17.2396 94.2937 15.8865 97.591C15.0847 99.5465 13.2805 101.002 10.5242 101.937L11.2258 104C14.6193 102.858 16.8745 100.974 17.9198 98.3974C19.6452 94.1652 17.39 89.7046 17.2969 89.519L15.3496 90.5111Z" fill="#0C697E"/>
<path id="Vector_15" d="M23.0888 94.6862C23.0888 93.1589 24.3345 91.9171 25.8666 91.9171C27.3987 91.9171 28.6444 93.1589 28.6444 94.6862C28.6444 96.2135 27.3987 97.4625 25.8666 97.4625C24.3345 97.4554 23.0888 96.2135 23.0888 94.6862ZM25.8666 89.7332C23.1246 89.7332 20.898 91.9528 20.898 94.6862C20.898 97.3126 22.9599 99.468 25.5516 99.625C24.399 100.424 22.8239 101.224 20.6689 101.93L21.3562 104C30.6849 100.931 30.8782 95.8496 30.828 94.9075C30.828 94.8361 30.8352 94.7576 30.8352 94.6791C30.8352 91.9528 28.6086 89.7332 25.8666 89.7332Z" fill="#0C697E"/>
<path id="Vector_16" d="M86.8428 85.5295C86.8428 86.179 86.313 86.7071 85.6615 86.7071C85.01 86.7071 84.4802 86.179 84.4802 85.5295C84.4802 84.8801 85.01 84.3519 85.6615 84.3519C86.313 84.3519 86.8428 84.8729 86.8428 85.5295Z" fill="#0C697E"/>
<path id="Vector_17" d="M39.9134 99.6393H35.9614V97.5053H39.9134C41.3381 97.5053 42.4907 96.3491 42.4907 94.936V84.2948H44.6314V94.936C44.6314 97.5267 42.5122 99.6393 39.9134 99.6393Z" fill="#0C697E"/>
<path id="Vector_18" d="M85.6185 97.5054H32.439V99.6393H85.6185V97.5054Z" fill="#0C697E"/>
<path id="Vector_19" d="M37.6366 98.9756L35.6177 98.269C36.5699 95.557 35.8683 92.4881 33.8279 90.454L35.3385 88.9481C37.9588 91.5603 38.8609 95.4927 37.6366 98.9756Z" fill="#0C697E"/>
<path id="Vector_20" d="M85.6614 89.6618C84.4658 89.6618 83.4993 90.6325 83.4993 91.8172C83.4993 93.0019 84.473 93.9726 85.6614 93.9726C86.857 93.9726 87.8235 93.0091 87.8235 91.8172C87.8235 90.6253 86.857 89.6618 85.6614 89.6618ZM85.6614 96.0994C83.2917 96.0994 81.3586 94.1724 81.3586 91.8101C81.3586 89.4477 83.2917 87.5208 85.6614 87.5208C88.0311 87.5208 89.9642 89.4406 89.9642 91.8101C89.9642 94.1795 88.0311 96.0994 85.6614 96.0994Z" fill="#0C697E"/>
<path id="Vector_21" d="M85.2463 99.6394H41.4097V97.5054H85.2463C86.671 97.5054 87.8236 96.3492 87.8236 94.9361V91.9742H89.9643V94.9361C89.9643 97.5268 87.8451 99.6394 85.2463 99.6394Z" fill="#0C697E"/>
</g>
</g>
</g>
</svg>
